<svg aria-hidden="true" style="position: absolute; width: 0; height: 0; overflow: hidden;" version="1.1" xmlns="http://www.w3.org/2000/svg" xmlns:xlink="http://www.w3.org/1999/xlink">
<defs>
<symbol id="icon-star-icon" viewBox="0 0 32 32">
<path d="M8.51 31.534c-0.776 0.605-1.569 0.621-2.378 0.050s-1.079-1.326-0.81-2.267l2.884-9.319-7.337-5.188c-0.81-0.571-1.054-1.327-0.733-2.267 0.32-0.94 0.969-1.41 1.947-1.41h9.058l2.935-9.672c0.169-0.47 0.431-0.832 0.785-1.084 0.354-0.251 0.733-0.377 1.138-0.377s0.784 0.126 1.137 0.377c0.355 0.253 0.617 0.614 0.785 1.084l2.935 9.672h9.058c0.978 0 1.628 0.47 1.949 1.41 0.32 0.94 0.075 1.696-0.735 2.267l-7.337 5.188 2.884 9.319c0.27 0.94 0 1.696-0.81 2.267s-1.602 0.554-2.378-0.050l-7.489-5.692-7.489 5.692z"></path>
</symbol>
<symbol id="icon-instagram" viewBox="0 0 32 32">
<path stroke-linejoin="miter" stroke-linecap="butt" stroke-miterlimit="4" stroke-width="0.8" d="M22.716 0.4c4.894 0 8.884 3.997 8.884 8.89v13.419c0 4.893-3.99 8.89-8.877 8.89h-13.431c-4.895 0-8.892-3.99-8.892-8.874v-13.427c0-4.893 3.998-8.89 8.892-8.89h0.4v-0.008h13.023zM9.292 2.069c-4.006 0-7.222 3.217-7.23 7.235v13.428c0 3.997 3.218 7.213 7.23 7.213h13.431c3.998-0 7.215-3.217 7.215-7.229v-13.419c0-4.012-3.217-7.229-7.223-7.229h-13.423zM16.008 7.79c4.518 0 8.216 3.697 8.216 8.213s-3.698 8.212-8.216 8.212c-4.518 0-8.216-3.696-8.216-8.212s3.698-8.213 8.216-8.213zM16.008 9.451c-3.636 0-6.554 2.917-6.554 6.552s2.918 6.552 6.554 6.552c3.636 0 6.554-2.917 6.554-6.552s-2.918-6.552-6.554-6.552zM25.854 5.33c0.464 0 0.83 0.367 0.83 0.83s-0.367 0.83-0.83 0.83c-0.464 0-0.83-0.367-0.83-0.83s0.367-0.83 0.83-0.83z"></path>
</symbol>
<symbol id="icon-dribbble" viewBox="0 0 32 32">
<path stroke-linejoin="miter" stroke-linecap="butt" stroke-miterlimit="4" stroke-width="0.8" d="M16 0.4c8.594 0 15.6 7.005 15.6 15.599s-7.006 15.599-15.6 15.599-15.6-7.005-15.6-15.599c0-8.594 7.005-15.599 15.6-15.599zM19.252 20.006c-2.763 0.786-5.656 2.826-7.849 4.794-1.060 0.943-1.915 1.838-2.602 2.571l-0.342 0.365 0.43 0.253c2.081 1.226 4.497 1.948 7.103 1.948 1.956 0 3.801-0.404 5.487-1.116l0.283-0.12-0.042-0.304c-0.396-2.86-1.095-5.585-1.98-8.138l-0.124-0.357-0.363 0.103zM29.005 19.509c-1.194-0.132-2.708-0.265-4.628-0.194h-0.004c-0.827 0.039-1.707 0.117-2.602 0.234l-0.48 0.063 0.153 0.46c0.756 2.275 1.381 4.685 1.784 7.191l0.1 0.621 0.52-0.354c2.605-1.774 4.578-4.411 5.497-7.509l0.136-0.459-0.476-0.052zM16.139 12.791c-6.314 1.754-11.875 1.7-13.608 1.632l-0.384-0.015-0.030 0.384c-0.031 0.39-0.063 0.79-0.063 1.216 0 4.19 1.854 7.929 4.775 10.485l0.295 0.258 0.264-0.289c0.732-0.801 1.715-1.822 2.909-2.887l0.002-0.002c2.247-2.025 5.14-4.169 8.292-5.105l0.42-0.125-0.163-0.407c-0.705-1.766-1.464-3.408-2.246-4.941l-0.148-0.291-0.315 0.088zM25.932 6.897c-1.355 1.617-3.709 3.719-7.437 5.145l-0.412 0.158 0.198 0.395c0.803 1.598 1.582 3.301 2.291 5.141l0.116 0.299 0.317-0.048c2.695-0.402 5.187-0.403 7.070-0.259v0.001c0.555 0.045 0.872 0.096 1.324 0.159l0.408 0.056 0.045-0.409c0.055-0.505 0.087-1.012 0.087-1.536 0-3.485-1.292-6.662-3.397-9.107l-0.307-0.356-0.302 0.361zM10.14 3.367c-3.675 1.695-6.463 4.935-7.564 8.895l-0.136 0.491 0.509 0.016c2.025 0.062 6.865-0.031 12.229-1.436l0.503-0.132-0.256-0.452c-2.081-3.667-3.832-6.014-4.802-7.263l-0.195-0.251-0.289 0.133zM16 2.062c-1.159 0-2.284 0.159-3.348 0.419l-0.593 0.145 0.369 0.485c1.138 1.497 2.773 3.758 4.73 7.298l0.165 0.299 0.322-0.117c3.701-1.344 5.92-3.399 7.135-4.892l0.253-0.312-0.312-0.252c-2.384-1.925-5.411-3.073-8.72-3.073z"></path>
</symbol>
<symbol id="icon-linkedin" viewBox="0 0 32 32">
<path stroke-linejoin="miter" stroke-linecap="butt" stroke-miterlimit="4" stroke-width="0.3902" d="M26.841 0.195h-22.073c-2.522 0-4.573 2.051-4.573 4.573v22.073c0 2.522 2.051 4.573 4.573 4.573h22.073c2.522 0 4.573-2.052 4.573-4.573v-22.073c0-2.522-2.052-4.573-4.573-4.573zM29.585 26.841c0 1.513-1.231 2.744-2.744 2.744h-22.073c-1.513 0-2.744-1.231-2.744-2.744v-22.073c0-1.513 1.231-2.744 2.744-2.744h22.073c1.513 0 2.744 1.231 2.744 2.744v22.073z"></path>
<path d="M20.676 12.056c0.695 0.020 1.353 0.175 1.946 0.546 0.76 0.475 1.224 1.17 1.495 2.004 0.212 0.65 0.281 1.321 0.282 2.001 0.002 1.959 0.001 3.919 0.001 5.878 0 0.035-0.003 0.069-0.005 0.109h-3.331v-0.141l0.001-5.405c-0-0.384-0.029-0.764-0.127-1.139-0.202-0.776-0.739-1.143-1.313-1.223-0.572-0.079-1.181 0.128-1.528 0.496s-0.576 0.787-0.585 1.303c-0.002 0.121-0.009 0.245-0.009 0.367-0.001 1.865-0.001 3.73-0.001 5.595v0.146h-3.323v-10.291h3.322v1.38l0.007 0.003c0.008 0.004 0.018 0.008 0.027 0.011l0.008 0.004 0.005-0.008c0.024-0.032 0.049-0.064 0.072-0.096 0.335-0.462 0.719-0.87 1.229-1.146 0.569-0.308 1.185-0.412 1.826-0.394z"></path>
<path d="M12.11 12.299v10.3h-3.306v-10.3h3.306z"></path>
<path d="M10.6 7.165c0.521-0.001 0.965 0.183 1.28 0.496s0.5 0.758 0.502 1.281c0.002 0.516-0.184 0.957-0.503 1.268s-0.771 0.494-1.303 0.495c-1.036 0.001-1.775-0.734-1.777-1.767s0.747-1.771 1.801-1.773z"></path>
</symbol>
<symbol id="icon-behance" viewBox="0 0 32 32">
<path stroke-linejoin="miter" stroke-linecap="butt" stroke-miterlimit="4" stroke-width="0.3902" d="M26.841 0.195h-22.073c-2.522 0-4.573 2.051-4.573 4.573v22.073c0 2.522 2.051 4.573 4.573 4.573h22.073c2.522 0 4.573-2.052 4.573-4.573v-22.073c0-2.522-2.052-4.573-4.573-4.573zM29.585 26.841c0 1.513-1.231 2.744-2.744 2.744h-22.073c-1.513 0-2.744-1.231-2.744-2.744v-22.073c0-1.513 1.231-2.744 2.744-2.744h22.073c1.513 0 2.744 1.231 2.744 2.744v22.073z"></path>
<path stroke-linejoin="miter" stroke-linecap="butt" stroke-miterlimit="4" stroke-width="0.3902" d="M14.89 13.061c0-2.017-1.641-3.659-3.659-3.659h-5.488v12.805h5.488c2.017 0 3.659-1.641 3.659-3.659 0-1.092-0.481-2.073-1.243-2.744 0.761-0.671 1.243-1.652 1.243-2.744zM13.061 18.549c0 1.009-0.821 1.829-1.829 1.829h-3.659v-3.659h3.659c1.009 0 1.829 0.821 1.829 1.829zM7.573 14.89v-3.659h3.659c1.009 0 1.829 0.821 1.829 1.829s-0.821 1.829-1.829 1.829h-3.659z"></path>
<path stroke-linejoin="miter" stroke-linecap="butt" stroke-miterlimit="4" stroke-width="0.3902" d="M21.293 13.061c-2.522 0-4.573 2.052-4.573 4.573s2.052 4.573 4.573 4.573c1.627 0 3.145-0.876 3.961-2.286l-1.583-0.916c-0.49 0.847-1.401 1.373-2.377 1.373-1.193 0-2.21-0.765-2.587-1.829h7.16v-0.915c0-2.522-2.052-4.573-4.573-4.573zM18.705 16.72c0.378-1.065 1.395-1.829 2.587-1.829s2.21 0.765 2.587 1.829h-5.174z"></path>
<path stroke-linejoin="miter" stroke-linecap="butt" stroke-miterlimit="4" stroke-width="0.3902" d="M17.634 9.402h7.317v1.829h-7.317v-1.829z"></path>
</symbol>
</defs>
</svg>
